<?xml version="1.0" encoding="UTF-8"?>
<svg version="1.1" xmlns="http://www.w3.org/2000/svg" width="225" height="225">
<path d="M0 0 C74.25 0 148.5 0 225 0 C225 74.25 225 148.5 225 225 C150.75 225 76.5 225 0 225 C0 150.75 0 76.5 0 0 Z " fill="#FEEA0E" transform="translate(0,0)"/>
<path d="M0 0 C11.55 0 23.1 0 35 0 C31.17329725 7.65340549 27.32245137 15.10771169 23.0625 22.5 C17.18097536 32.78985668 11.55770836 43.20316227 6.02563477 53.68359375 C5.42807373 54.81023437 4.8305127 55.936875 4.21484375 57.09765625 C3.69011475 58.09289307 3.16538574 59.08812988 2.62475586 60.11352539 C2.08858643 61.06606201 1.55241699 62.01859863 1 63 C0.43514893 64.09965088 -0.12970215 65.19930176 -0.71166992 66.33227539 C-3 69 -3 69 -6.57519531 69.68115234 C-7.99319346 69.68020788 -9.41142525 69.64661261 -10.828125 69.5859375 C-11.57713074 69.57744781 -12.32613647 69.56895813 -13.09783936 69.56021118 C-15.48337469 69.5266993 -17.86549212 69.45143886 -20.25 69.375 C-21.86974273 69.34489687 -23.48953863 69.31752165 -25.109375 69.29296875 C-29.07422775 69.22691723 -33.03653509 69.12342313 -37 69 C-35.49996144 65.01980509 -33.65966277 61.3324741 -31.65625 57.58203125 C-31.33096817 56.97180618 -31.00568634 56.36158112 -30.67054749 55.73286438 C-29.61653746 53.75787685 -28.5585033 51.7850825 -27.5 49.8125 C-26.7694166 48.44712067 -26.03886664 47.08172344 -25.30834961 45.71630859 C-19.97168188 35.75470709 -14.54722296 25.84602632 -9 16 C-8.13133826 14.45322167 -7.26285294 12.90634425 -6.39453125 11.359375 C-4.2673361 7.57045987 -2.13356517 3.78535756 0 0 Z " fill="#0E1014" transform="translate(95,78)"/>
<path d="M0 0 C1.051875 0.02255859 2.10375 0.04511719 3.1875 0.06835938 C5.75155243 0.12663329 8.31247076 0.20837122 10.875 0.3125 C9.5511925 4.66035872 7.85527374 8.4358251 5.63671875 12.3984375 C5.31950363 12.96887283 5.00228851 13.53930817 4.67546082 14.12702942 C3.6423021 15.98306705 2.60238554 17.83522436 1.5625 19.6875 C0.10855508 22.29439295 -1.34203768 24.90314748 -2.79296875 27.51171875 C-3.1580957 28.16697037 -3.52322266 28.82222198 -3.89941406 29.49732971 C-7.93559865 36.74858702 -11.87034615 44.0537947 -15.78637695 51.37060547 C-16.74942371 53.16055896 -17.7322684 54.94003496 -18.73681641 56.70703125 C-20.19133143 59.30395096 -20.19133143 59.30395096 -21.21240234 62.18359375 C-22.54949489 65.28105477 -23.54686409 67.11543789 -26.125 69.3125 C-31.95900307 70.56064195 -37.57494432 70.25747957 -43.5 69.9375 C-45.11053958 69.8873022 -46.72122873 69.84168117 -48.33203125 69.80078125 C-52.26672695 69.69092265 -56.19422073 69.51864866 -60.125 69.3125 C-58.79816065 64.95833877 -57.09831307 61.16597748 -54.88671875 57.19140625 C-54.56954895 56.61805542 -54.25237915 56.04470459 -53.92559814 55.45397949 C-52.89327309 53.59127198 -51.85346414 51.73289165 -50.8125 49.875 C-50.09103129 48.58205918 -49.36976058 47.28900785 -48.64868164 45.99584961 C-47.54921359 44.0251709 -46.44891272 42.05498039 -45.34605408 40.0861969 C-43.00652681 35.90746873 -40.7038393 31.71056009 -38.421875 27.5 C-37.30235393 25.45818494 -36.18257751 23.41650987 -35.0625 21.375 C-34.56387451 20.44179932 -34.06524902 19.50859863 -33.55151367 18.54711914 C-26.13312418 5.16378443 -15.22621576 -0.62958271 0 0 Z " fill="#0F1014" transform="translate(77.125,77.6875)"/>
<path d="M0 0 C11.55 0 23.1 0 35 0 C30.73402877 8.53194245 26.49348251 16.88139343 21.75 25.125 C18.42447706 30.92254628 15.11882487 36.71592977 12.03125 42.64453125 C6.05589175 54.07502058 0.87799388 62.89340593 -11.39160156 68.19726562 C-16.22315115 69.68417456 -21.05546254 69.41426874 -26.0625 69.25 C-27.11888672 69.23195313 -28.17527344 69.21390625 -29.26367188 69.1953125 C-31.8434255 69.14862013 -34.42120817 69.08315588 -37 69 C-26.59095494 47.6000378 -15.02108022 26.79785296 -3.19824219 6.15283203 C-2.07409819 4.13312915 -1.03372138 2.06744276 0 0 Z " fill="#0E1014" transform="translate(136,78)"/>
<path d="M0 0 C6.02071087 2.04476973 8.83259814 5.80050202 12.3125 10.9375 C13.87989863 15.63969588 13.38366942 19.68918836 11.375 24.125 C8.72914568 28.97416362 5.32511791 32.2249607 0 34 C-4.999041 34.52485628 -8.85701947 34.59265657 -13.375 32.25 C-18.66261977 27.71775448 -21.64865386 24.79453827 -22.3125 17.625 C-21.79040737 11.56872554 -19.99557018 7.60381543 -15.4375 3.625 C-10.40386248 -0.42356007 -6.36586037 -0.52967097 0 0 Z " fill="#0F1114" transform="translate(196,78)"/>
</svg>
